:SAMPLES-PER-SECOND 30
:FRAME-RANGE 1-1390
:FULLY-SPECIFIED
:DEGREES
1000
root  46.9997 40.3187 -69.571 27.7496 -72.899 -28.1229
RightUpLeg  -82.7602 -11.259 51.6825
RightLeg  127.667 4.1077 -4.32993
RightFoot  -32.2823 -0.0364831 0.991688
RightToes  6.35937e-011 1.2921e-014 -6.02303e-014
Spine  17.9853 -1.50615 3.70061
Spine1  -3.11266 0.978436 -4.83047
HEad  13.2259 -3.52304 -9.83217
LeftShoulder1  3.80568 -11.0446 -20.3363
LeftArm  28.7541 -20.9105 -68.2758
LeftForeArm  33.9572 0.872086 -17.926
LeftHand  0.021621 6.83279 4.2871
RightShoulder  2.80043 6.68 21.8752
RightArm  -2.82136 32.5616 94.7337
RightForeArm  120.686 -3.29275 5.17484
RightHand  1.55397 -19.857 -12.7596
LeftUpLeg  -15.3059 -21.6608 0.211697
LeftLeg  21.9183 -16.8833 -6.88956
LeftFoot  -5.73546 0.416054 -7.78858
LeftToes  4.52251e-011 4.07896e-011 -5.42348e-012
1001
root  47.6933 40.1231 -69.3216 20.4892 -69.0044 -21.0115
RightUpLeg  -84.4329 -11.7116 51.3421
RightLeg  127.063 4.36031 -4.74184
RightFoot  -33.1198 -0.0728151 0.794191
RightToes  6.35937e-011 1.2921e-014 -6.02303e-014
Spine  18.587 -2.25754 2.82476
Spine1  -3.94306 0.440487 -3.43259
HEad  14.7355 -2.7608 -6.79065
LeftShoulder1  3.83315 -11.0828 -20.4654
LeftArm  21.3389 -21.7251 -67.9235
LeftForeArm  41.0444 2.87778 -17.2336
LeftHand  0.0323768 7.05507 4.51612
RightShoulder  2.70892 6.24855 22.1997
RightArm  -1.33817 32.6262 94.2954
RightForeArm  119.862 -3.52283 6.35402
RightHand  1.67276 -19.8697 -13.6513
LeftUpLeg  -14.7031 -24.2446 -1.86609
LeftLeg  28.5144 -9.53091 -5.21613
LeftFoot  -12.1337 0.042668 -4.34197
LeftToes  4.52251e-011 4.07896e-011 -5.42348e-012
1002
root  48.3705 39.6892 -69.3801 18.5084 -65.0657 -18.8129
RightUpLeg  -85.4804 -11.5728 53.3179
RightLeg  124.452 3.77742 -4.46017
RightFoot  -33.2999 0.0211437 1.27843
RightToes  6.35937e-011 1.2921e-014 -6.02303e-014
Spine  18.7156 -2.30103 1.81675
Spine1  -4.33939 0.0251054 -1.10948
HEad  14.5308 -2.87399 -1.79928
LeftShoulder1  3.82386 -11.5318 -19.53
LeftArm  17.4951 -23.7241 -68.2399
LeftForeArm  45.739 3.7751 -16.7261
LeftHand  0.0214658 7.16129 3.64174
RightShoulder  2.68706 6.00929 22.7226
RightArm  -0.444745 32.7008 94.1379
RightForeArm  119.323 -3.65078 6.99234
RightHand  1.81723 -20.2271 -14.4045
LeftUpLeg  -14.4746 -24.3621 -2.16645
LeftLeg  35.8596 3.9749 3.46746
LeftFoot  -13.9682 0.0494415 -1.4971
LeftToes  4.52251e-011 4.07896e-011 -5.42348e-012
1003
root  49.0308 38.8905 -69.4409 18.5835 -62.118 -19.0029
RightUpLeg  -85.3073 -10.6522 55.395
RightLeg  121.397 2.46232 -3.05207
RightFoot  -32.9058 0.200707 2.23094
RightToes  6.35937e-011 1.2921e-014 -6.02303e-014
Spine  19.0282 -1.89846 1.30922
Spine1  -4.73248 0.107953 1.18086
HEad  12.1646 -3.12937 2.33971
LeftShoulder1  3.86356 -12.2662 -18.4896
LeftArm  18.3126 -25.0466 -68.377
LeftForeArm  44.948 3.5979 -16.8281
LeftHand  0.0116072 7.11226 3.11352
RightShoulder  2.65727 5.76689 23.1895
RightArm  -0.75141 33.2332 94.5713
RightForeArm  118.615 -3.58752 6.40253
RightHand  2.03188 -20.3717 -15.8398
LeftUpLeg  -13.8595 -23.1394 -1.31698
LeftLeg  44.2618 12.6735 13.3052
LeftFoot  -11.7642 0.0739076 0.883897
LeftToes  4.52251e-011 4.07896e-011 -5.42348e-012
1004
root  49.5571 37.7761 -69.4577 18.5101 -60.0099 -19.3552
RightUpLeg  -84.0945 -9.18908 56.8017
RightLeg  118.416 1.62278 -2.03995
RightFoot  -33.0439 0.483013 3.69397
RightToes  6.35937e-011 1.2921e-014 -6.02303e-014
Spine  18.74 -1.99409 1.80524
Spine1  -4.15338 0.0807977 1.18181
HEad  8.57885 -3.02852 5.68406
LeftShoulder1  3.56573 -12.0326 -16.7949
LeftArm  25.0133 -25.3322 -68.3817
LeftForeArm  38.6706 2.08467 -17.5299
LeftHand  0.0122084 6.95613 3.38457
RightShoulder  2.82246 6.11366 23.9096
RightArm  -1.10999 33.6434 95.6251
RightForeArm  118.602 -3.47697 5.72045
RightHand  2.07514 -20.3626 -16.1649
LeftUpLeg  -10.7029 -20.9134 0.0711973
LeftLeg  44.6193 8.00221 8.79634
LeftFoot  -22.7611 -0.121454 -2.58043
LeftToes  4.52251e-011 4.07896e-011 -5.42348e-012
1005
root  49.9887 36.6613 -69.2324 13.5856 -57.5128 -14.2245
RightUpLeg  -84.5127 -9.67434 54.9621
RightLeg  117.323 1.38139 -1.71812
RightFoot  -33.8964 0.482094 3.57625
RightToes  6.35937e-011 1.2921e-014 -6.02303e-014
Spine  18.385 -2.60984 1.05682
Spine1  -4.00296 -0.285457 -0.35338
HEad  4.86881 -3.67658 7.01999
LeftShoulder1  3.47262 -11.8947 -16.3582
LeftArm  35.9354 -25.2195 -67.8321
LeftForeArm  29.6085 -0.726499 -18.2064
LeftHand  0.00996825 6.66502 3.7776
RightShoulder  2.84694 6.09856 24.2353
RightArm  -1.31942 33.7805 96.5128
RightForeArm  120.792 -3.27867 5.11826
RightHand  2.29157 -21.1115 -16.9231
LeftUpLeg  -7.55408 -23.5514 -3.21653
LeftLeg  42.1318 7.62998 7.75292
LeftFoot  -32.6835 1.15485 5.07628
LeftToes  4.52251e-011 4.07896e-011 -5.42348e-012
1006
root  50.6096 35.4735 -68.9669 8.11197 -54.6379 -9.40573
RightUpLeg  -86.0891 -11.3314 54.3273
RightLeg  117.931 3.37101 -5.10885
RightFoot  -34.282 0.288725 2.5751
RightToes  6.35937e-011 1.2921e-014 -6.02303e-014
Spine  19.2612 -2.93019 2.21459
Spine1  -2.94282 -0.151782 -2.53906
HEad  -0.351154 -5.74255 5.82227
LeftShoulder1  3.45381 -11.8648 -16.2722
LeftArm  46.3349 -27.1168 -68.9189
LeftForeArm  22.8105 -3.58379 -18.2828
LeftHand  0.00583653 6.67321 3.42447
RightShoulder  2.74667 5.92928 23.6719
RightArm  0.835002 34.1915 95.8326
RightForeArm  121.178 -3.50071 6.5847
RightHand  2.61391 -22.1356 -18.0136
LeftUpLeg  -7.47217 -24.7196 -7.76231
LeftLeg  48.9249 7.02644 9.01887
LeftFoot  -36.4325 1.39945 5.29133
LeftToes  4.52251e-011 4.07896e-011 -5.42348e-012
1007
root  50.8091 34.9761 -68.418 7.23474 -54.2085 -9.38205
RightUpLeg  -83.9895 -11.7382 55.5154
RightLeg  118.89 4.73978 -7.164
RightFoot  -34.1569 0.176342 2.02826
RightToes  6.35937e-011 1.2921e-014 -6.02303e-014
Spine  18.5662 -2.40392 4.40565
Spine1  -1.87041 0.758289 -3.61167
HEad  -2.53401 -4.7212 2.38042
LeftShoulder1  3.29207 -11.6641 -15.4265
LeftArm  39.5584 -27.1635 -70.6752
LeftForeArm  30.132 -1.65603 -18.1683
LeftHand  -0.00164898 6.57836 2.97663
RightShoulder  2.88503 6.38866 23.6962
RightArm  3.23252 34.3536 94.3105
RightForeArm  119.925 -3.92179 8.85533
RightHand  2.60349 -22.0493 -18.0364
LeftUpLeg  -5.66296 -22.2023 -9.19535
LeftLeg  50.3751 7.15536 9.64438
LeftFoot  -38.724 1.59652 5.58179
LeftToes  4.52251e-011 4.07896e-011 -5.42348e-012
1008
root  50.6002 34.9117 -67.6759 7.4816 -53.7544 -9.44705
RightUpLeg  -82.2091 -10.5874 55.7848
RightLeg  122.013 3.8996 -5.09217
RightFoot  -34.1911 0.319633 2.7354
RightToes  6.35937e-011 1.2921e-014 -6.02303e-014
Spine  16.5061 -2.22753 4.22089
Spine1  -2.10584 0.491396 -2.33186
HEad  -1.87639 -1.40674 1.19487
LeftShoulder1  3.34549 -11.7645 -15.6534
LeftArm  62.3092 -23.8241 -69.9212
LeftForeArm  8.457 -8.75916 -17.3977
LeftHand  -0.0202631 5.70787 2.8114
RightShoulder  2.88507 6.20577 24.2994
RightArm  0.934352 32.7363 94.8587
RightForeArm  123.871 -3.55373 7.65964
RightHand  2.28411 -21.7507 -16.2324
LeftUpLeg  -3.47518 -17.626 -9.0071
LeftLeg  48.4274 6.70872 8.49806
LeftFoot  -39.6618 1.90419 6.58189
LeftToes  4.52251e-011 4.07896e-011 -5.42348e-012
1009
root  50.1999 35.4115 -66.7345 8.16257 -51.4019 -9.53793
RightUpLeg  -82.8302 -10.1679 55.7764
RightLeg  125.954 3.32782 -3.63427
RightFoot  -34.1879 0.249114 2.38669
RightToes  6.35937e-011 1.2921e-014 -6.02303e-014
Spine  13.8663 -2.81378 4.51752
Spine1  -2.37262 -0.557037 -0.752479
HEad  -0.217197 -0.418959 0.38489
LeftShoulder1  3.47548 -11.9663 -16.2614
LeftArm  67.295 -20.266 -69.2839
LeftForeArm  1.09542 -10.4214 -16.947
LeftHand  -0.030029 5.17946 2.33597
RightShoulder  2.9645 6.81724 23.1974
RightArm  -0.331218 31.0536 95.1664
RightForeArm  126.902 -3.35549 7.25585
RightHand  2.17157 -21.7132 -15.516
LeftUpLeg  0.26242 -15.8798 -8.5367
LeftLeg  42.5344 6.15373 6.43641
LeftFoot  -37.8706 2.0794 7.83056
LeftToes  4.52251e-011 4.07896e-011 -5.42348e-012
1010
root  49.7062 36.3097 -65.7231 8.54428 -48.0992 -9.42599
RightUpLeg  -84.045 -10.2949 56.1862
RightLeg  128.355 4.51005 -4.68985
RightFoot  -35.5522 0.171753 1.93252
RightToes  6.35937e-011 1.2921e-014 -6.02303e-014
Spine  12.2922 -2.78628 4.56822
Spine1  -3.20151 -1.03378 1.99697
HEad  0.638528 -2.68687 -0.775597
LeftShoulder1  3.84194 -12.3966 -18.1168
LeftArm  58.2212 -18.8771 -69.9489
LeftForeArm  8.92007 -7.75561 -17.7836
LeftHand  -0.0313058 5.3771 2.39932
RightShoulder  2.70274 5.91791 23.2058
RightArm  -0.493422 29.9403 93.3882
RightForeArm  126.984 -3.4834 8.07353
RightHand  2.11725 -21.7856 -15.0875
LeftUpLeg  4.35695 -12.9456 -6.43761
LeftLeg  35.5368 0.828876 1.02628
LeftFoot  -32.0978 1.99651 9.81402
LeftToes  4.52251e-011 4.07896e-011 -5.42348e-012
1011
root  49.2822 37.4184 -64.8085 6.71628 -45.1702 -7.02402
RightUpLeg  -85.9047 -10.5962 54.7974
RightLeg  129.199 5.75425 -5.94675
RightFoot  -36.0592 -0.0509683 0.891373
RightToes  6.35937e-011 1.2921e-014 -6.02303e-014
Spine  11.9277 -2.80409 3.63734
Spine1  -3.03523 -1.24311 3.08382
HEad  -0.50185 -4.23524 -0.992768
LeftShoulder1  4.10821 -12.3086 -20.1042
LeftArm  46.0449 -18.4005 -68.77
LeftForeArm  18.0692 -3.71751 -18.4652
LeftHand  -0.0253561 5.45265 2.68972
RightShoulder  2.66884 5.93368 22.763
RightArm  -0.309695 30.835 92.6085
RightForeArm  124.03 -3.61969 8.11513
RightHand  2.07997 -21.7088 -14.9064
LeftUpLeg  6.45662 -12.9465 -6.80994
LeftLeg  33.9352 -5.5812 -3.65242
LeftFoot  -19.6496 0.719955 8.26787
LeftToes  4.52251e-011 4.07896e-011 -5.42348e-012
